<?xml version="1.0" encoding="iso-8859-1"?>
<!-- Uploaded to: SVG Repo, www.svgrepo.com, Generator: SVG Repo Mixer Tools -->
<svg height="800px" width="800px" version="1.1" id="Layer_1" xmlns="http://www.w3.org/2000/svg" xmlns:xlink="http://www.w3.org/1999/xlink" 
	 viewBox="0 0 392.533 392.533" xml:space="preserve">
<path style="fill:#FFFFFF;" d="M359.822,135.822H32.711c-6.012,0-10.925,4.848-10.925,10.925v188.509
	c0,6.012,4.848,10.925,10.925,10.925h327.111c6.012,0,10.925-4.848,10.925-10.925V146.747
	C370.747,140.8,365.834,135.822,359.822,135.822z"/>
<path style="fill:#FFC10D;" d="M43.895,320.646V156.574c0-0.711,0.517-1.293,1.293-1.293h302.739c0.711,0,1.293,0.517,1.293,1.293
	v164.137c0,0.711-0.517,1.293-1.293,1.293H45.123C44.412,322.004,43.895,321.358,43.895,320.646z"/>
<g>
	<path style="fill:#194F82;" d="M81.067,178.941H66.586c-5.43,0-9.826,4.396-9.826,9.826c0,5.43,4.396,9.826,9.826,9.826h14.481
		c5.43,0,9.826-4.396,9.826-9.826C90.893,183.337,86.432,178.941,81.067,178.941z"/>
	<path style="fill:#194F82;" d="M115.588,198.594h14.481c5.43,0,9.826-4.396,9.826-9.826s-4.396-9.826-9.826-9.826h-14.481
		c-5.43,0-9.826,4.396-9.826,9.826C105.762,194.198,110.158,198.594,115.588,198.594z"/>
	<path style="fill:#194F82;" d="M164.525,198.594h14.481c5.43,0,9.826-4.396,9.826-9.826s-4.396-9.826-9.826-9.826h-14.481
		c-5.43,0-9.826,4.396-9.826,9.826C154.764,194.198,159.095,198.594,164.525,198.594z"/>
	<path style="fill:#194F82;" d="M228.008,178.941h-14.481c-5.43,0-9.826,4.396-9.826,9.826c0,5.43,4.396,9.826,9.826,9.826h14.481
		c5.43,0,9.826-4.396,9.826-9.826C237.77,183.337,233.438,178.941,228.008,178.941z"/>
	<path style="fill:#194F82;" d="M325.947,178.941h-63.418c-5.43,0-9.826,4.396-9.826,9.826c0,5.43,4.396,9.826,9.826,9.826h63.418
		c5.43,0,9.826-4.396,9.826-9.826C335.774,183.337,331.313,178.941,325.947,178.941z"/>
	<path style="fill:#194F82;" d="M81.067,228.784H66.586c-5.43,0-9.826,4.396-9.826,9.826c0,5.43,4.396,9.826,9.826,9.826h14.481
		c5.43,0,9.826-4.396,9.826-9.826C90.893,233.18,86.432,228.784,81.067,228.784z"/>
	<path style="fill:#194F82;" d="M115.588,248.436h14.481c5.43,0,9.826-4.396,9.826-9.826c0-5.43-4.396-9.826-9.826-9.826h-14.481
		c-5.43,0-9.826,4.396-9.826,9.826C105.762,244.04,110.158,248.436,115.588,248.436z"/>
	<path style="fill:#194F82;" d="M164.525,248.436h14.481c5.43,0,9.826-4.396,9.826-9.826c0-5.43-4.396-9.826-9.826-9.826h-14.481
		c-5.43,0-9.826,4.396-9.826,9.826C154.764,244.04,159.095,248.436,164.525,248.436z"/>
	<path style="fill:#194F82;" d="M228.008,228.784h-14.481c-5.43,0-9.826,4.396-9.826,9.826c0,5.43,4.396,9.826,9.826,9.826h14.481
		c5.43,0,9.826-4.396,9.826-9.826C237.77,233.18,233.438,228.784,228.008,228.784z"/>
	<path style="fill:#194F82;" d="M262.465,248.436h14.481c5.43,0,9.826-4.396,9.826-9.826c0-5.43-4.396-9.826-9.826-9.826h-14.481
		c-5.43,0-9.826,4.396-9.826,9.826C252.638,244.04,257.099,248.436,262.465,248.436z"/>
	<path style="fill:#194F82;" d="M81.067,278.691H66.586c-5.43,0-9.826,4.396-9.826,9.826s4.396,9.826,9.826,9.826h14.481
		c5.43,0,9.826-4.396,9.826-9.826C90.893,283.022,86.432,278.691,81.067,278.691z"/>
	<path style="fill:#194F82;" d="M228.008,278.691h-112.42c-5.43,0-9.826,4.396-9.826,9.826s4.396,9.826,9.826,9.826h112.42
		c5.43,0,9.826-4.396,9.826-9.826C237.77,283.022,233.438,278.691,228.008,278.691z"/>
	<path style="fill:#194F82;" d="M325.947,228.784c-5.43,0-9.826,4.396-9.826,9.826v40.016h-53.657c-5.43,0-9.826,4.396-9.826,9.826
		s4.396,9.826,9.826,9.826h49.002h14.481c5.43,0,9.826-4.396,9.826-9.826V238.61C335.774,233.18,331.313,228.784,325.947,228.784z"
		/>
	<path style="fill:#194F82;" d="M359.822,114.036h-152.63V35.491c0-6.012-4.848-10.925-10.925-10.925s-10.925,4.848-10.925,10.925
		v78.61H32.711C14.675,114.101,0,128.776,0,146.812v188.444c0,18.036,14.675,32.711,32.711,32.711h327.111
		c18.036,0,32.711-14.675,32.711-32.711V146.747C392.533,128.711,377.859,114.036,359.822,114.036z M370.747,335.257
		c0,6.012-4.848,10.925-10.925,10.925H32.711c-6.012,0-10.925-4.848-10.925-10.925V146.747c0-6.012,4.848-10.925,10.925-10.925
		h327.111c6.012,0,10.925,4.848,10.925,10.925V335.257L370.747,335.257z"/>
</g>
</svg>